<?xml version="1.0" encoding="UTF-8" standalone="no"?>
<svg
   xmlns:dc="http://purl.org/dc/elements/1.1/"
   xmlns:cc="http://creativecommons.org/ns#"
   xmlns:rdf="http://www.w3.org/1999/02/22-rdf-syntax-ns#"
   xmlns:svg="http://www.w3.org/2000/svg"
   xmlns="http://www.w3.org/2000/svg"
   xmlns:sodipodi="http://sodipodi.sourceforge.net/DTD/sodipodi-0.dtd"
   xmlns:inkscape="http://www.inkscape.org/namespaces/inkscape"
   version="1.0"
   width="700.000000pt"
   height="700.000000pt"
   viewBox="0 0 700.000000 700.000000"
   preserveAspectRatio="xMidYMid meet"
   id="svg2"
   inkscape:version="0.91 r13725"
   sodipodi:docname="safari-pinned-tab.svg">
  <defs
     id="defs16" />
  <sodipodi:namedview
     pagecolor="#ffffff"
     bordercolor="#666666"
     borderopacity="1"
     objecttolerance="10"
     gridtolerance="10"
     guidetolerance="10"
     inkscape:pageopacity="0"
     inkscape:pageshadow="2"
     inkscape:window-width="1301"
     inkscape:window-height="744"
     id="namedview14"
     showgrid="false"
     inkscape:zoom="0.34728525"
     inkscape:cx="437.5"
     inkscape:cy="437.58568"
     inkscape:window-x="65"
     inkscape:window-y="24"
     inkscape:window-maximized="1"
     inkscape:current-layer="svg2" />
  <metadata
     id="metadata4">
Created by potrace 1.11, written by Peter Selinger 2001-2013
<rdf:RDF>
  <cc:Work
     rdf:about="">
    <dc:format>image/svg+xml</dc:format>
    <dc:type
       rdf:resource="http://purl.org/dc/dcmitype/StillImage" />
    <dc:title></dc:title>
  </cc:Work>
</rdf:RDF>
</metadata>
  <g
     id="g4148">
    <g
       id="g6"
       stroke="none"
       fill="#000000"
       transform="translate(0.000000,700.000000) scale(0.100000,-0.100000)">
      <path
         id="path8"
         d="M3200 6990 c-917 -87 -1721 -494 -2330 -1181 -398 -449 -678 -1011 -800 -1607 -54 -266 -64 -378 -64 -702 0 -324 10 -436 64 -702 259 -1268 1203 -2295 2445 -2658 163 -47 381 -93 560 -117 183 -24 667 -24 850 0 875 117 1625 514 2205 1168 398 449 678 1011 800 1607 54 266 64 378 64 702 0 324 -10 436 -64 702 -259 1268 -1203 2295 -2445 2658 -163 47 -383 93 -555 116 -147 19 -588 27 -730 14z m600 -315 c749 -125 1360 -643 1600 -1355 150 -447 143 -914 -22 -1355 -212 -571 -675 -1017 -1253 -1210 -74 -25 -141 -45 -149 -45 -8 0 -17 -4 -20 -8 -3 -5 508 -249 1134 -542 627 -294 1137 -537 1132 -541 -4 -3 -690 -302 -1526 -663 l-1518 -657 -217 133 c-1569 962 -1930 1184 -1930 1188 -1 3 448 234 997 515 548 280 1012 518 1031 529 l33 19 -112 29 c-797 205 -1384 861 -1505 1683 -21 144 -21 415 0 560 120 823 716 1482 1523 1684 102 26 180 40 312 55 76 9 400 -3 490 -19z" />
      <path
         style="fill:#ffffff"
         id="path10"
         d="M3295 6634 c-474 -55 -878 -247 -1201 -569 -244 -245 -423 -551 -509 -872 -39 -148 -54 -234 -66 -386 -30 -400 66 -792 284 -1157 79 -133 161 -235 291 -366 308 -308 680 -495 1113 -559 142 -21 403 -21 548 0 648 94 1200 495 1495 1084 74 148 144 370 177 559 21 122 24 469 5 587 -72 434 -265 816 -564 1112 -309 307 -705 502 -1134 558 -102 13 -355 18 -439 9z m-280 -1205 c71 -26 156 -104 189 -172 77 -157 47 -320 -81 -437 -70 -64 -145 -93 -243 -93 -106 0 -178 30 -250 102 -86 86 -105 134 -105 261 0 95 3 110 27 157 50 95 118 154 216 189 59 21 182 17 247 -7z" />
      <path
         id="path12"
         d="M3715 2664 c-55 -7 -128 -13 -162 -13 -46 -1 -63 -5 -63 -15 0 -7 -68 -517 -150 -1132 -83 -616 -149 -1124 -148 -1130 3 -12 2908 1236 2909 1250 1 14 -2233 1056 -2261 1054 -14 0 -70 -7 -125 -14z" />
    </g>
    <circle
       r="37.754032"
       cy="191.09462"
       cx="288.83319"
       id="path4146"
       style="fill:#000000;fill-opacity:1;stroke:none;stroke-width:0.60000002;stroke-linejoin:round;stroke-miterlimit:4;stroke-dasharray:none;stroke-opacity:1" />
  </g>
</svg>
